<svg width="128" height="128" viewBox="0 0 128 128" fill="none" xmlns="http://www.w3.org/2000/svg">
<rect width="128" height="128" fill="white"/>
<path d="M7.11222 66.6193V64.0497C8.58665 64.0497 9.60938 63.7557 10.1804 63.1676C10.7514 62.5795 11.0369 61.6293 11.0369 60.3168V57.4915C11.0369 55.9148 11.2543 54.6534 11.6889 53.7074C12.1321 52.7528 12.7457 52.0327 13.5298 51.5469C14.3224 51.0611 15.2599 50.7372 16.3423 50.5753C17.4247 50.4134 18.6094 50.3324 19.8963 50.3324V54.3977C18.8906 54.3977 18.1236 54.5298 17.5952 54.794C17.0753 55.0497 16.7216 55.4503 16.5341 55.9957C16.3466 56.5327 16.2528 57.2145 16.2528 58.0412V61.7741C16.2528 62.4219 16.1335 63.0398 15.8949 63.6278C15.6563 64.2074 15.2131 64.723 14.5653 65.1747C13.9176 65.6179 12.9929 65.9716 11.7912 66.2358C10.5895 66.4915 9.02983 66.6193 7.11222 66.6193ZM19.8963 82.6889C18.6094 82.6889 17.4247 82.608 16.3423 82.446C15.2599 82.2841 14.3224 81.9602 13.5298 81.4744C12.7457 80.9886 12.1321 80.2685 11.6889 79.3139C11.2543 78.3679 11.0369 77.1065 11.0369 75.5298V72.6918C11.0369 71.3793 10.7514 70.429 10.1804 69.8409C9.60938 69.2528 8.58665 68.9588 7.11222 68.9588V66.3892C9.02983 66.3892 10.5895 66.5213 11.7912 66.7855C12.9929 67.0412 13.9176 67.3949 14.5653 67.8466C15.2131 68.2898 15.6563 68.8054 15.8949 69.3935C16.1335 69.973 16.2528 70.5909 16.2528 71.2472V74.9801C16.2528 75.7983 16.3466 76.4759 16.5341 77.0128C16.7216 77.5582 17.0753 77.9588 17.5952 78.2145C18.1236 78.4787 18.8906 78.6108 19.8963 78.6108V82.6889ZM7.11222 68.9588V64.0497H11.7017V68.9588H7.11222Z" fill="#2082F5"/>
<path d="M28.3498 65.6477V77H22.9038V50.8182H28.1964V60.8281H28.4265C28.8697 59.669 29.5856 58.7614 30.5742 58.1051C31.5629 57.4403 32.8029 57.108 34.2944 57.108C35.658 57.108 36.8469 57.4062 37.8612 58.0028C38.8839 58.5909 39.6765 59.4389 40.239 60.5469C40.81 61.6463 41.0913 62.9631 41.0827 64.4972V77H35.6367V65.4688C35.6452 64.2585 35.3384 63.3168 34.7163 62.6435C34.1026 61.9702 33.2418 61.6335 32.1339 61.6335C31.3924 61.6335 30.7362 61.7912 30.1651 62.1065C29.6026 62.4219 29.1594 62.8821 28.8356 63.4872C28.5202 64.0838 28.3583 64.804 28.3498 65.6477ZM54.3175 77.3835C52.2976 77.3835 50.5589 76.9744 49.1016 76.1562C47.6527 75.3295 46.5362 74.1619 45.7521 72.6534C44.968 71.1364 44.576 69.3423 44.576 67.2713C44.576 65.2514 44.968 63.4787 45.7521 61.9531C46.5362 60.4276 47.6399 59.2386 49.0632 58.3864C50.495 57.5341 52.174 57.108 54.1001 57.108C55.3956 57.108 56.6016 57.3168 57.718 57.7344C58.843 58.1435 59.8232 58.7614 60.6584 59.5881C61.5021 60.4148 62.1584 61.4545 62.6271 62.7074C63.0959 63.9517 63.3303 65.4091 63.3303 67.0795V68.5753H46.7493V65.2003H58.2038C58.2038 64.4162 58.0334 63.7216 57.6925 63.1165C57.3516 62.5114 56.8786 62.0384 56.2734 61.6974C55.6768 61.348 54.9822 61.1733 54.1896 61.1733C53.3629 61.1733 52.63 61.3651 51.9908 61.7486C51.3601 62.1236 50.8658 62.6307 50.5078 63.2699C50.1499 63.9006 49.9666 64.6037 49.9581 65.3793V68.5881C49.9581 69.5597 50.1371 70.3991 50.495 71.1065C50.8615 71.8139 51.3771 72.3594 52.0419 72.7429C52.7067 73.1264 53.495 73.3182 54.407 73.3182C55.0121 73.3182 55.5661 73.233 56.0689 73.0625C56.5717 72.892 57.0021 72.6364 57.3601 72.2955C57.718 71.9545 57.9908 71.5369 58.1783 71.0426L63.2152 71.375C62.9595 72.5852 62.4354 73.642 61.6428 74.5455C60.8587 75.4403 59.8445 76.1392 58.6001 76.642C57.3643 77.1364 55.9368 77.3835 54.3175 77.3835ZM72.3303 50.8182V77H66.8842V50.8182H72.3303ZM82.1388 50.8182V77H76.6928V50.8182H82.1388ZM95.3736 77.3835C93.3878 77.3835 91.6705 76.9616 90.2216 76.1179C88.7813 75.2656 87.669 74.081 86.8849 72.5639C86.1009 71.0384 85.7088 69.2699 85.7088 67.2585C85.7088 65.2301 86.1009 63.4574 86.8849 61.9403C87.669 60.4148 88.7813 59.2301 90.2216 58.3864C91.6705 57.5341 93.3878 57.108 95.3736 57.108C97.3594 57.108 99.0724 57.5341 100.513 58.3864C101.962 59.2301 103.078 60.4148 103.862 61.9403C104.646 63.4574 105.038 65.2301 105.038 67.2585C105.038 69.2699 104.646 71.0384 103.862 72.5639C103.078 74.081 101.962 75.2656 100.513 76.1179C99.0724 76.9616 97.3594 77.3835 95.3736 77.3835ZM95.3991 73.1648C96.3026 73.1648 97.0568 72.9091 97.6619 72.3977C98.267 71.8778 98.723 71.1705 99.0298 70.2756C99.3452 69.3807 99.5028 68.3622 99.5028 67.2202C99.5028 66.0781 99.3452 65.0597 99.0298 64.1648C98.723 63.2699 98.267 62.5625 97.6619 62.0426C97.0568 61.5227 96.3026 61.2628 95.3991 61.2628C94.4872 61.2628 93.7202 61.5227 93.098 62.0426C92.4844 62.5625 92.0199 63.2699 91.7045 64.1648C91.3977 65.0597 91.2443 66.0781 91.2443 67.2202C91.2443 68.3622 91.3977 69.3807 91.7045 70.2756C92.0199 71.1705 92.4844 71.8778 93.098 72.3977C93.7202 72.9091 94.4872 73.1648 95.3991 73.1648Z" fill="#1B1B1B"/>
<path d="M120.021 66.3892V68.9588C118.555 68.9588 117.533 69.2528 116.953 69.8409C116.382 70.429 116.097 71.3793 116.097 72.6918V75.5298C116.097 77.1065 115.875 78.3679 115.432 79.3139C114.997 80.2685 114.384 80.9886 113.591 81.4744C112.807 81.9602 111.874 82.2841 110.791 82.446C109.717 82.608 108.533 82.6889 107.237 82.6889V78.6108C108.243 78.6108 109.006 78.4787 109.526 78.2145C110.054 77.9588 110.412 77.5582 110.599 77.0128C110.787 76.4759 110.881 75.7983 110.881 74.9801V71.2472C110.881 70.5909 111 69.973 111.239 69.3935C111.477 68.8054 111.92 68.2898 112.568 67.8466C113.216 67.3949 114.141 67.0412 115.342 66.7855C116.544 66.5213 118.104 66.3892 120.021 66.3892ZM107.237 50.3324C108.533 50.3324 109.717 50.4134 110.791 50.5753C111.874 50.7372 112.807 51.0611 113.591 51.5469C114.384 52.0327 114.997 52.7528 115.432 53.7074C115.875 54.6534 116.097 55.9148 116.097 57.4915V60.3168C116.097 61.6293 116.382 62.5795 116.953 63.1676C117.533 63.7557 118.555 64.0497 120.021 64.0497V66.6193C118.104 66.6193 116.544 66.4915 115.342 66.2358C114.141 65.9716 113.216 65.6179 112.568 65.1747C111.92 64.723 111.477 64.2074 111.239 63.6278C111 63.0398 110.881 62.4219 110.881 61.7741V58.0412C110.881 57.2145 110.787 56.5327 110.599 55.9957C110.412 55.4503 110.054 55.0497 109.526 54.794C109.006 54.5298 108.243 54.3977 107.237 54.3977V50.3324ZM120.021 64.0497V68.9588H115.432V64.0497H120.021Z" fill="#2082F5"/>
</svg>
