<svg width="128" height="48" viewBox="0 0 128 48" fill="none" xmlns="http://www.w3.org/2000/svg">
<rect width="128" height="48" fill="white"/>
<path d="M7.11222 26.6193V24.0497C8.58665 24.0497 9.60938 23.7557 10.1804 23.1676C10.7514 22.5795 11.0369 21.6293 11.0369 20.3168V17.4915C11.0369 15.9148 11.2543 14.6534 11.6889 13.7074C12.1321 12.7528 12.7457 12.0327 13.5298 11.5469C14.3224 11.0611 15.2599 10.7372 16.3423 10.5753C17.4247 10.4134 18.6094 10.3324 19.8963 10.3324V14.3977C18.8906 14.3977 18.1236 14.5298 17.5952 14.794C17.0753 15.0497 16.7216 15.4503 16.5341 15.9957C16.3466 16.5327 16.2528 17.2145 16.2528 18.0412V21.7741C16.2528 22.4219 16.1335 23.0398 15.8949 23.6278C15.6563 24.2074 15.2131 24.723 14.5653 25.1747C13.9176 25.6179 12.9929 25.9716 11.7912 26.2358C10.5895 26.4915 9.02983 26.6193 7.11222 26.6193ZM19.8963 42.6889C18.6094 42.6889 17.4247 42.608 16.3423 42.446C15.2599 42.2841 14.3224 41.9602 13.5298 41.4744C12.7457 40.9886 12.1321 40.2685 11.6889 39.3139C11.2543 38.3679 11.0369 37.1065 11.0369 35.5298V32.6918C11.0369 31.3793 10.7514 30.429 10.1804 29.8409C9.60938 29.2528 8.58665 28.9588 7.11222 28.9588V26.3892C9.02983 26.3892 10.5895 26.5213 11.7912 26.7855C12.9929 27.0412 13.9176 27.3949 14.5653 27.8466C15.2131 28.2898 15.6563 28.8054 15.8949 29.3935C16.1335 29.973 16.2528 30.5909 16.2528 31.2472V34.9801C16.2528 35.7983 16.3466 36.4759 16.5341 37.0128C16.7216 37.5582 17.0753 37.9588 17.5952 38.2145C18.1236 38.4787 18.8906 38.6108 19.8963 38.6108V42.6889ZM7.11222 28.9588V24.0497H11.7017V28.9588H7.11222Z" fill="#2082F5"/>
<path d="M28.3498 25.6477V37H22.9038V10.8182H28.1964V20.8281H28.4265C28.8697 19.669 29.5856 18.7614 30.5742 18.1051C31.5629 17.4403 32.8029 17.108 34.2944 17.108C35.658 17.108 36.8469 17.4062 37.8612 18.0028C38.8839 18.5909 39.6765 19.4389 40.239 20.5469C40.81 21.6463 41.0913 22.9631 41.0827 24.4972V37H35.6367V25.4688C35.6452 24.2585 35.3384 23.3168 34.7163 22.6435C34.1026 21.9702 33.2418 21.6335 32.1339 21.6335C31.3924 21.6335 30.7362 21.7912 30.1651 22.1065C29.6026 22.4219 29.1594 22.8821 28.8356 23.4872C28.5202 24.0838 28.3583 24.804 28.3498 25.6477ZM54.3175 37.3835C52.2976 37.3835 50.5589 36.9744 49.1016 36.1562C47.6527 35.3295 46.5362 34.1619 45.7521 32.6534C44.968 31.1364 44.576 29.3423 44.576 27.2713C44.576 25.2514 44.968 23.4787 45.7521 21.9531C46.5362 20.4276 47.6399 19.2386 49.0632 18.3864C50.495 17.5341 52.174 17.108 54.1001 17.108C55.3956 17.108 56.6016 17.3168 57.718 17.7344C58.843 18.1435 59.8232 18.7614 60.6584 19.5881C61.5021 20.4148 62.1584 21.4545 62.6271 22.7074C63.0959 23.9517 63.3303 25.4091 63.3303 27.0795V28.5753H46.7493V25.2003H58.2038C58.2038 24.4162 58.0334 23.7216 57.6925 23.1165C57.3516 22.5114 56.8786 22.0384 56.2734 21.6974C55.6768 21.348 54.9822 21.1733 54.1896 21.1733C53.3629 21.1733 52.63 21.3651 51.9908 21.7486C51.3601 22.1236 50.8658 22.6307 50.5078 23.2699C50.1499 23.9006 49.9666 24.6037 49.9581 25.3793V28.5881C49.9581 29.5597 50.1371 30.3991 50.495 31.1065C50.8615 31.8139 51.3771 32.3594 52.0419 32.7429C52.7067 33.1264 53.495 33.3182 54.407 33.3182C55.0121 33.3182 55.5661 33.233 56.0689 33.0625C56.5717 32.892 57.0021 32.6364 57.3601 32.2955C57.718 31.9545 57.9908 31.5369 58.1783 31.0426L63.2152 31.375C62.9595 32.5852 62.4354 33.642 61.6428 34.5455C60.8587 35.4403 59.8445 36.1392 58.6001 36.642C57.3643 37.1364 55.9368 37.3835 54.3175 37.3835ZM72.3303 10.8182V37H66.8842V10.8182H72.3303ZM82.1388 10.8182V37H76.6928V10.8182H82.1388ZM95.3736 37.3835C93.3878 37.3835 91.6705 36.9616 90.2216 36.1179C88.7813 35.2656 87.669 34.081 86.8849 32.5639C86.1009 31.0384 85.7088 29.2699 85.7088 27.2585C85.7088 25.2301 86.1009 23.4574 86.8849 21.9403C87.669 20.4148 88.7813 19.2301 90.2216 18.3864C91.6705 17.5341 93.3878 17.108 95.3736 17.108C97.3594 17.108 99.0724 17.5341 100.513 18.3864C101.962 19.2301 103.078 20.4148 103.862 21.9403C104.646 23.4574 105.038 25.2301 105.038 27.2585C105.038 29.2699 104.646 31.0384 103.862 32.5639C103.078 34.081 101.962 35.2656 100.513 36.1179C99.0724 36.9616 97.3594 37.3835 95.3736 37.3835ZM95.3991 33.1648C96.3026 33.1648 97.0568 32.9091 97.6619 32.3977C98.267 31.8778 98.723 31.1705 99.0298 30.2756C99.3452 29.3807 99.5028 28.3622 99.5028 27.2202C99.5028 26.0781 99.3452 25.0597 99.0298 24.1648C98.723 23.2699 98.267 22.5625 97.6619 22.0426C97.0568 21.5227 96.3026 21.2628 95.3991 21.2628C94.4872 21.2628 93.7202 21.5227 93.098 22.0426C92.4844 22.5625 92.0199 23.2699 91.7045 24.1648C91.3977 25.0597 91.2443 26.0781 91.2443 27.2202C91.2443 28.3622 91.3977 29.3807 91.7045 30.2756C92.0199 31.1705 92.4844 31.8778 93.098 32.3977C93.7202 32.9091 94.4872 33.1648 95.3991 33.1648Z" fill="#1B1B1B"/>
<path d="M120.021 26.3892V28.9588C118.555 28.9588 117.533 29.2528 116.953 29.8409C116.382 30.429 116.097 31.3793 116.097 32.6918V35.5298C116.097 37.1065 115.875 38.3679 115.432 39.3139C114.997 40.2685 114.384 40.9886 113.591 41.4744C112.807 41.9602 111.874 42.2841 110.791 42.446C109.717 42.608 108.533 42.6889 107.237 42.6889V38.6108C108.243 38.6108 109.006 38.4787 109.526 38.2145C110.054 37.9588 110.412 37.5582 110.599 37.0128C110.787 36.4759 110.881 35.7983 110.881 34.9801V31.2472C110.881 30.5909 111 29.973 111.239 29.3935C111.477 28.8054 111.92 28.2898 112.568 27.8466C113.216 27.3949 114.141 27.0412 115.342 26.7855C116.544 26.5213 118.104 26.3892 120.021 26.3892ZM107.237 10.3324C108.533 10.3324 109.717 10.4134 110.791 10.5753C111.874 10.7372 112.807 11.0611 113.591 11.5469C114.384 12.0327 114.997 12.7528 115.432 13.7074C115.875 14.6534 116.097 15.9148 116.097 17.4915V20.3168C116.097 21.6293 116.382 22.5795 116.953 23.1676C117.533 23.7557 118.555 24.0497 120.021 24.0497V26.6193C118.104 26.6193 116.544 26.4915 115.342 26.2358C114.141 25.9716 113.216 25.6179 112.568 25.1747C111.92 24.723 111.477 24.2074 111.239 23.6278C111 23.0398 110.881 22.4219 110.881 21.7741V18.0412C110.881 17.2145 110.787 16.5327 110.599 15.9957C110.412 15.4503 110.054 15.0497 109.526 14.794C109.006 14.5298 108.243 14.3977 107.237 14.3977V10.3324ZM120.021 24.0497V28.9588H115.432V24.0497H120.021Z" fill="#2082F5"/>
</svg>
